# xmcd CD database file
#
# Track frame offsets:
#	150
#	31029
#	60911
#	90497
#	124500
#	152705
#
# Disc length: 2496 seconds
#
# Revision: 0
# Processed by: cddbd v1.5.2PL0 Copyright (c) Steve Scherf et al.
# Submitted via: CDex 1.81
#
DISCID=3609be06
DTITLE=Wayne Shorter - Adam's Apple
DYEAR=1966
DGENRE=Jazz
TTITLE0=Adam's Apple
TTITLE1=502 Blues (Drinkin' And Drivin')
TTITLE2=El Gaucho
TTITLE3=Footprints
TTITLE4=Teru
TTITLE5=Chief Crazy Horse
EXTD=YEAR: 1966
EXTT0=
EXTT1=
EXTT2=
EXTT3=
EXTT4=
EXTT5=
PLAYORDER=
